<?xml version="1.0" encoding="UTF-8"?>
<svg id="Layer_2" data-name="Layer 2" xmlns="http://www.w3.org/2000/svg" viewBox="0 0 22 22">
  <defs>
    <style>
      .cls-1 {
        stroke-width: 0px;
      }
    </style>
  </defs>
  <g id="Layer_1-2" data-name="Layer 1">
    <g>
      <path class="cls-1" d="m16,10c-3.3,0-6,2.7-6,6s2.7,6,6,6,6-2.7,6-6-2.7-6-6-6Zm0,10c-2.2,0-4-1.8-4-4s1.8-4,4-4,4,1.8,4,4-1.8,4-4,4Zm.92-1.76l-2.1-2.1,1.6-3.02,1.33.7-1.08,2.04,1.31,1.31-1.06,1.06Z"/>
      <path class="cls-1" d="m8,16c0-.08.01-.16.01-.25-.21-.51-.41-1.09-.57-1.75h.82c.18-.71.46-1.38.82-2h-1.97c-.07-.63-.11-1.29-.11-2s.04-1.37.11-2h5.78c.02.2.03.4.05.61.62-.26,1.28-.43,1.97-.53,0-.03,0-.06,0-.08h2.83c.02.07.02.14.04.2.77.18,1.5.46,2.17.85C19.47,3.98,15.19,0,10,0,4.49,0,0,4.49,0,10c0,5.19,3.98,9.47,9.05,9.95-.66-1.17-1.05-2.51-1.05-3.95Zm8.92-10h-2.31c-.25-1.2-.6-2.27-1.05-3.15,1.4.7,2.57,1.8,3.36,3.15Zm-6.92-4c.84,0,1.95,1.48,2.56,4h-5.11c.61-2.52,1.71-4,2.56-4ZM2.26,12c-.17-.64-.26-1.31-.26-2s.1-1.36.26-2h2.83c-.06.64-.09,1.31-.09,2s.03,1.36.09,2h-2.83Zm.82,2h2.31c.25,1.2.61,2.26,1.05,3.15-1.4-.7-2.57-1.8-3.36-3.15Zm2.31-8h-2.31c.79-1.35,1.95-2.45,3.36-3.15-.45.89-.8,1.95-1.05,3.15Z"/>
    </g>
  </g>
</svg>