<?xml version="1.0" encoding="UTF-8"?>
<svg id="Layer_1" data-name="Layer 1" xmlns="http://www.w3.org/2000/svg" viewBox="0 0 500 500">
  <defs>
    <style>
      .cls-1 {
        fill: #041d55;
      }

      .cls-1, .cls-2 {
        stroke-width: 0px;
      }

      .cls-2 {
        fill: #2468ff;
      }
    </style>
  </defs>
  <g>
    <path class="cls-1" d="m245.06,213.3c18.61,18.61,31.95,31.96,53.09,53.1v128.3h-96.47v-161.11c0-17.59,14.25-31.84,31.84-31.84-17.55,0-31.78-14.2-31.84-31.74-.05,17.54-14.29,31.74-31.84,31.74h-64.64v-76.22c0-11.19,9.08-20.26,20.26-20.26h11.58c20.06,20.05,33.11,33.1,50.29,50.28,7.92,7.92,20.77,7.92,28.7,0,17.17-17.18,30.22-30.23,50.28-50.28h108.05c11.18,0,20.26,9.07,20.26,20.26v76.22h-144.78c-6.03,0-9.04,7.29-4.78,11.54Z"/>
    <path class="cls-2" d="m394.62,298.24s0,76.45,0,76.56c-.18,11.03-9.18,19.91-20.25,19.91h-53.6c-20.09,0-30.16-24.29-15.95-38.51,26.73-26.73,57.63-57.63,57.97-57.97h31.84Z"/>
  </g>
  <path class="cls-1" d="m416.04,105.29v2.64h-5.1v13.31h-3.17v-13.31h-5.1v-2.64h13.37Zm17.24,15.95l-.59-9.38c-.06-1.23-.06-2.76-.12-4.46h-.18c-.41,1.41-.88,3.28-1.35,4.75l-2.87,8.85h-3.28l-2.87-9.09c-.29-1.23-.76-3.11-1.11-4.51h-.18c0,1.47-.06,2.99-.12,4.46l-.59,9.38h-3.05l1.17-15.95h4.75l2.76,7.8c.35,1.23.65,2.4,1.06,4.04h.06c.41-1.47.76-2.81,1.11-3.99l2.76-7.86h4.57l1.23,15.95h-3.17Z"/>
</svg>